<svg width="512" height="512" viewBox="0 0 512 512" fill="none" xmlns="http://www.w3.org/2000/svg">
  <!-- Institutional Navy Background -->
  <rect width="512" height="512" rx="140" fill="#0F172A"/>
  
  <!-- Modern Sans-Serif 'S' - Elite Style -->
  <path d="M256 120C180.89 120 120 180.89 120 256C120 331.11 180.89 392 256 392H296V440C296 462.09 313.91 480 336 480C358.09 480 376 462.09 376 440V336C376 313.91 358.09 296 336 296H256C233.91 296 216 278.09 216 256C216 233.91 233.91 216 256 216H336V168C336 145.91 318.09 128 296 128H256Z" fill="white" style="display:none"/>
  
  <!-- Clean Bold Helvetica-Style S -->
  <text x="50%" y="50%" dominant-baseline="central" text-anchor="middle" font-family="Arial, Helvetica, sans-serif" font-weight="900" font-size="320" fill="white">S</text>
</svg>
