<svg width="512" height="512" viewBox="0 0 512 512" fill="none" xmlns="http://www.w3.org/2000/svg">
  <path d="M480 320V288H32V320H64V416H128V320H160V384C160 419.3 188.7 448 224 448H288C323.3 448 352 419.3 352 384V320H384V416H448V320H480ZM272 320H240V224H272V320ZM176 320H144V192H176V320ZM368 320H336V192H368V320ZM256 96L144 144V176H176V203.2L256 169.6L336 203.2V176H368V144L256 96ZM64 192V176H96V144L32 128V320H64V192ZM448 192V320H480V128L416 144V176H448V192Z" fill="#0A2A42"/>
  <path d="M32 280H480" stroke="#0A2A42" stroke-width="32"/>
  <path d="M90 280L140 160" stroke="#0A2A42" stroke-width="20"/>
  <path d="M160 280L210 160" stroke="#0A2A42" stroke-width="20"/>
  <path d="M230 280L256 160L282 280" stroke="#0A2A42" stroke-width="20"/>
  <path d="M352 280L302 160" stroke="#0A2A42" stroke-width="20"/>
  <path d="M422 280L372 160" stroke="#0A2A42" stroke-width="20"/>
  <path d="M40 280C40 280 120 120 256 120C392 120 472 280 472 280" stroke="#0A2A42" stroke-width="30" fill="none"/>
</svg>
